<?xml version="1.0" encoding="utf-8"?>
<svg version="1.1" id="Layer_1" xmlns="http://www.w3.org/2000/svg" xmlns:xlink="http://www.w3.org/1999/xlink" x="0px" y="0px"
	 viewBox="0 0 135 39" style="enable-background:new 0 0 135 39;" xml:space="preserve">
<style type="text/css">
	.Logo__st0{fill-rule:evenodd;clip-rule:evenodd;fill:url(#Logo__Rectangle_1_);}
</style>
<path d="M37.9,0.2c-4.4,0-8.4,1.9-11.3,4.9c-2.8-3-6.8-4.9-11.3-4.9C6.9,0.2,0,7.2,0,15.7v19.1C0,37.1,1.9,39,4.2,39
	s4.2-1.9,4.2-4.2V15.7c0-3.9,3.2-7.1,7.1-7.1s7.1,3.2,7.1,7.1v19.1c0,2.3,1.9,4.2,4.2,4.2s4.2-1.9,4.2-4.2V15.7
	c0-3.9,3.2-7.1,7.1-7.1s7.1,3.2,7.1,7.1v19.1c0,2.3,1.9,4.2,4.2,4.2s4.2-1.9,4.2-4.2V15.7C53.4,7.2,46.5,0.2,37.9,0.2z"/>
<path d="M76.8,0.2c-10.6,0-19.3,8.7-19.3,19.3s8.7,19.3,19.3,19.3c10.6,0,19.3-8.7,19.3-19.3S87.4,0.2,76.8,0.2z M76.8,30.4
	c-6,0-10.9-4.9-10.9-10.9S70.7,8.6,76.8,8.6c6,0,10.9,4.9,10.9,10.9S82.8,30.4,76.8,30.4z"/>
<linearGradient id="Logo__Rectangle_1_" gradientUnits="userSpaceOnUse" x1="-934.5115" y1="850.2372" x2="-933.4901" y2="850.2372" gradientTransform="matrix(14.8492 -14.8492 -5.6569 -5.6569 18805.0918 -9050.7559)">
	<stop  offset="0" style="stop-color:#00F1FE;stop-opacity:0"/>
	<stop  offset="1" style="stop-color:#00F1FE"/>
</linearGradient>
<path class="Logo__st0" d="M118.6,10.6l9.4-9.4c1.6-1.6,4.2-1.6,5.8,0l0,0c1.6,1.6,1.6,4.2,0,5.8l-9.4,9.4
	c-1.6,1.6-4.2,1.6-5.8,0l0,0C117,14.8,117,12.2,118.6,10.6z"/>
<path d="M133.5,31.7l-15.1-15.1c0,0,0,0,0-0.1c0,0,0,0-0.1-0.1L103.3,1.4c-1.6-1.6-4.3-1.6-5.9,0c-1.6,1.6-1.6,4.3,0,5.9l12.2,12.2
	L97.4,31.7c-1.6,1.6-1.6,4.3,0,5.9c0.8,0.8,1.9,1.2,3,1.2c1.1,0,2.1-0.4,3-1.2l12.2-12.2l12.2,12.2c0.8,0.8,1.9,1.2,3,1.2
	c1.1,0,2.1-0.4,3-1.2C135.2,35.9,135.2,33.3,133.5,31.7z"/>
</svg>
