<svg xmlns="http://www.w3.org/2000/svg" viewBox="0 0 3631.64 1172.32"><g id="Layer_2" data-name="Layer 2"><g id="Trustmark"><path d="M1216.14,1155.09,724.83,835.23s-61.62-35.42-75.73-101.42c-19.81-92.66,45.52-172.1,45.52-172.1L1332.26,977c49.19,32.06,62.62,97.64,31,147.12C1330.78,1174.91,1264,1186.12,1216.14,1155.09Z"/><path d="M750.77,493.16s-75.26-45.44-75.26-150.55c0-104.75,75.23-149.62,75.23-149.62l268.6-175.8a106.31,106.31,0,0,1,115.88,178.27L908.84,342.87l385.72,251.21S1364,633.87,1377.67,701c19.09,93.68-45.39,170.86-45.39,170.86Z"/><path d="M1256.34,238.12c-25.22,0-43.17,7.95-60.68,19.35l-131.13,85.4,131.13,85.4c17.68,11.39,36.23,19.36,60.68,19.36a104.76,104.76,0,1,0,0-209.51"/><path d="M749.38,1172c25.22,0,43.17-8,60.68-19.35l131.13-85.4-131.13-85.4c-17.68-11.38-36.23-19.36-60.68-19.36a104.76,104.76,0,1,0,0,209.51"/><path d="M1801.85,839.53c27.73,0,53.58-7.52,73.79-24.91v39c-22.57,15.51-49.35,22.09-77.55,22.09-71,0-120.32-49.35-120.32-120.31,0-70.5,50.75-119.85,121.25-119.85,27.73,0,53.58,8,74.27,23.5v42.77c-18.34-19.74-43.71-30.08-71.92-30.08-49.35,0-84.12,34.31-84.12,83.66S1752.5,839.53,1801.85,839.53Z"/><path d="M1956,871.49h-38.07V566.34L1956,589.87v89.4c17.39-26.79,45.12-43.71,80.37-43.71,58.28,0,89.3,42.77,89.3,99.64V871.49h-38.54V741.78c0-45.12-19.74-69.09-60.16-69.09-42.77,0-71,36.66-71,82.72Z"/><path d="M2362.08,832c-19.27,27.27-48.88,43.71-85.07,43.71-67.68,0-116.09-50.29-116.09-118.9,0-70,48.41-121.26,116.09-121.26,36.19,0,65.8,16.92,85.07,44.65V639.79h38.54v231.7h-38.54ZM2200.4,756.35c0,47.93,33.37,83.18,80.37,83.18,47.47,0,81.31-35.25,81.31-83.18,0-48.88-33.84-84.6-81.31-84.6C2233.77,671.75,2200.4,707.47,2200.4,756.35Z"/><path d="M2497.9,871.49h-38.07V639.79h38.07v49.35c18.33-34.31,47.94-53.58,84.6-53.58v43.71c-46.06-6.58-84.6,24.44-84.6,81.78Z"/><path d="M2972.59,770.45H2789.77c5.63,41.83,38.54,69.56,84.59,69.56,29.61,0,58.28-8.46,82.72-25.85v36.66c-24.91,16.92-53.11,24.9-82.72,24.9-72.85,0-125-47-125-118,0-69.56,44.17-122.2,114.2-122.2,66.74,0,110.45,49.35,110.45,115.62A128.2,128.2,0,0,1,2972.59,770.45Zm-182.36-31h143.35c-3.76-39.48-28.67-68.62-69.56-68.62C2821.73,670.81,2796.35,700.42,2790.23,739.43Z"/><path d="M3053.9,871.49h-38.07V639.79h38.07v49.35c18.32-34.31,47.94-53.58,84.59-53.58v43.71c-46-6.58-84.59,24.44-84.59,81.78Z"/><path d="M3364.57,770.45H3181.74c5.63,41.83,38.54,69.56,84.6,69.56,29.61,0,58.27-8.46,82.72-25.85v36.66c-24.92,16.92-53.11,24.9-82.72,24.9-72.85,0-125-47-125-118,0-69.56,44.17-122.2,114.21-122.2,66.73,0,110.44,49.35,110.44,115.62A129.55,129.55,0,0,1,3364.57,770.45Zm-182.36-31h143.35c-3.76-39.48-28.68-68.62-69.57-68.62C3213.7,670.81,3188.32,700.42,3182.21,739.43Z"/><path d="M3593.09,831.7c-18.79,27.73-48.87,44.65-85.06,44.65-67.68,0-116.09-50.29-116.09-118.91,0-70,48.41-121.25,116.09-121.25,36.19,0,66.27,17.39,85.06,45.59V566.4l38.54,23.54V871.48H3593.1ZM3431.42,757c0,47.94,33.37,83.19,80.37,83.19,47.47,0,81.3-35.25,81.3-83.19,0-48.88-33.83-84.59-81.3-84.59C3464.79,672.38,3431.42,708.09,3431.42,757Z"/><path d="M2649,794.47c0,32.43,19.74,45.12,44.66,45.12a91.91,91.91,0,0,0,54-16.92V859.8c-16,11.75-38.07,16.45-57.34,16.45-49.35,0-79.43-22.09-79.43-84.6V566.29L2649,589.82Z"/><path d="M2710.56,636.76a29.4,29.4,0,1,0-32,49.33l.81.51a29.37,29.37,0,0,0,31.67,0l37.87-24.28Z"/><path d="M1757.2,505.4c27.25,0,47-11.75,47-32.9,0-12.69-6.58-22.56-24-29.61l-55-22.09c-28.2-12.22-43.71-28.2-43.71-58.28,0-40.42,32.43-65.8,79.43-65.8,27.25,0,52.64,7.52,70.49,21.15v39.95c-21.14-18.8-47-29.61-70-29.61-24.45,0-41.83,11.28-41.83,30.08,0,14.1,6.57,22.56,24.91,29.61l55,22.09c29.6,12.69,43.24,30.55,43.24,55.46,0,44.18-35.72,71.44-86,71.44-30.56,0-58.29-8.46-78.49-23.5V472C1702.67,495.06,1729.94,505.4,1757.2,505.4Z"/><path d="M1915.12,455.11c0,32.43,19.74,45.12,44.65,45.12a91.94,91.94,0,0,0,54-16.92v37.13c-16,11.75-38.07,16.45-57.34,16.45-49.35,0-79.43-22.09-79.43-84.6v-202l38.07-23.55Z"/><path d="M2226.72,493.18c-19.27,27.26-48.88,43.71-85.07,43.71-67.68,0-116.09-50.29-116.09-118.91,0-70,48.41-121.26,116.09-121.26,36.19,0,65.8,16.92,85.07,44.65V301h38.54V532.66h-38.54ZM2065,417.51c0,47.94,33.37,83.19,80.37,83.19,47.47,0,81.31-35.25,81.31-83.19,0-48.88-33.84-84.6-81.31-84.6C2098.41,332.91,2065,368.63,2065,417.51Z"/><path d="M2362.55,532.66h-38.08V301h38.08v39.48c17.38-26.79,45.11-43.71,80.36-43.71,58.28,0,89.3,42.77,89.3,99.64v136.3h-38.54V402.94c0-45.12-19.74-69.09-60.16-69.09-42.77,0-71,36.66-71,82.72Z"/><path d="M2768.62,492.24c-18.8,27.73-48.88,44.65-85.07,44.65-67.68,0-116.08-50.29-116.08-118.91,0-70,48.4-121.26,116.08-121.26,36.19,0,66.27,17.39,85.07,45.59V250.26l38.54-23.53V532.66h-38.54Zm-161.68-74.73c0,47.94,33.38,83.19,80.38,83.19,47.46,0,81.3-35.25,81.3-83.19,0-48.88-33.84-84.6-81.3-84.6C2640.32,332.91,2606.94,368.63,2606.94,417.51Z"/><path d="M3473.62,492.24c-18.8,27.73-48.88,44.65-85.07,44.65-67.68,0-116.08-50.29-116.08-118.91,0-70,48.4-121.26,116.08-121.26,36.19,0,66.27,17.39,85.07,45.59V250.26l38.54-23.53V532.66h-38.54Zm-161.68-74.73c0,47.94,33.38,83.19,80.38,83.19,47.46,0,81.3-35.25,81.3-83.19,0-48.88-33.84-84.6-81.3-84.6C3345.32,332.91,3311.94,368.63,3311.94,417.51Z"/><path d="M3049.68,493.18c-19.27,27.26-48.88,43.71-85.07,43.71-67.68,0-116.09-50.29-116.09-118.91,0-70,48.41-121.26,116.09-121.26,36.19,0,65.8,16.92,85.07,44.65V301h38.54V532.66h-38.54ZM2888,417.51c0,47.94,33.37,83.19,80.37,83.19,47.47,0,81.31-35.25,81.31-83.19,0-48.88-33.84-84.6-81.31-84.6C2921.37,332.91,2888,368.63,2888,417.51Z"/><path d="M3185.5,532.66h-38.07V301h38.07V350.3c18.33-34.31,47.94-53.58,84.6-53.58v43.71c-46.06-6.58-84.6,24.44-84.6,81.78Z"/><path d="M1968.79,350.33a29.4,29.4,0,1,0,31.88-49.4l-.81-.51a29.4,29.4,0,0,0-31.68.11l-37.8,24.37Z"/><path d="M87.6,535.34c-26.41,0-48.15-13-60.52-34.11v31.43H0V281.9H27.08v117c12.37-21.06,34.11-34.1,60.52-34.1,48.15,0,82.92,35.77,82.92,84.92C170.52,499.56,135.75,535.34,87.6,535.34Zm54.83-85.26c0-34.44-24.07-59.52-57.17-59.52-33.77,0-58.18,25.08-58.18,59.52,0,34.77,24.41,59.84,58.18,59.84C118.36,509.92,142.43,484.85,142.43,450.08Z"/><path d="M228.36,616.25H199.61l52.82-110L181.22,367.83h32.09l53.83,107.66L319.3,367.83h28.76Z"/></g></g></svg>